<svg xmlns="http://www.w3.org/2000/svg" xmlns:xlink="http://www.w3.org/1999/xlink" version="1.1" x="0px" y="0px" viewBox="0 0 100 100" enable-background="new 0 0 100 100" xml:space="preserve"><path d="M90.388,82.008c-0.266,1.943-0.583,2.154-0.612,2.17h-0.003c-0.409,0-1.537-1.203-2.626-2.363  c-1.46-1.555-3.456-3.686-6.148-5.793c-7.073-5.537-10.218-6.201-10.716-6.275c-0.55-0.158-1.737-0.652-2.266-1.438  c0.555,0.016,1.111,0.037,1.654,0.037c7.05,0,12.945-1.301,14.483-1.672C85.381,68.365,91.123,76.635,90.388,82.008z"/><path d="M75.227,56.607l0.565,2.773c-1.722-1.553-2.765-3.088-3.354-4.176C73.403,55.727,74.331,56.188,75.227,56.607z"/><path d="M76.555,57.197c0.689,0.295,1.361,0.563,2.008,0.801l-1.509,1.656L76.555,57.197z"/><path d="M79.166,59.09l0.34,2.914c-0.695-0.383-1.327-0.783-1.909-1.189L79.166,59.09z"/><path d="M80.299,58.582c0.738,0.23,1.448,0.426,2.124,0.584l-1.782,2.354L80.299,58.582z"/><path d="M83.154,60.16l0.731,3.406c-1.398-0.188-2.236-0.516-2.246-0.52c-0.173-0.072-0.335-0.152-0.501-0.227L83.154,60.16z"/><path d="M84.227,59.529c0.901,0.15,1.732,0.236,2.499,0.279l-1.818,2.891L84.227,59.529z"/><path d="M87.43,60.914l0.335,2.324c-0.122,0.133-0.238,0.256-0.351,0.373c-0.615,0.064-1.197,0.09-1.735,0.084L87.43,60.914z"/><path d="M89.141,61.637c-0.122,0.145-0.238,0.283-0.351,0.418l-0.321-2.225c0.976-0.035,1.804-0.143,2.486-0.279  c-0.171,0.186-0.352,0.361-0.516,0.555C89.95,60.674,89.521,61.182,89.141,61.637z"/><g><path d="M73.495,45.031c-0.021,0.985,0.117,2.619,1.225,3.025c0.243,0.091,0.479,0.136,0.702,0.136c0.746,0,1.257-0.513,1.52-0.86   C76.487,46.854,75.404,45.876,73.495,45.031z"/><path d="M96.021,49.094c-2.081-5.479-16.364-13.515-16.508-13.595c-5.926-2.891-10.213-2.926-12.775-2.947   c-1.891-0.016-3.257-0.027-3.685-1.335c-0.228-0.696-0.39-1.824-0.595-3.253c-0.456-3.181-1.146-7.988-3.157-10.349   c-1.264-1.48-1.803-1.792-2.032-1.792c-0.71,0-1.324,4.706-1.527,6.253c-0.987,7.561-5.908,13.178-6.117,13.415l-0.127,0.142   l-0.186,0.042c-8.49,1.925-18.887,5.294-18.991,5.328l-0.269,0.087l-0.235-0.154c-1.503-0.977-2.819-1.56-3.52-1.56   c-0.163,0-0.236,0.034-0.254,0.055c-0.033,0.037-0.076,0.184-0.031,0.493c0.367,2.491-1.24,2.929-2.941,3.395l-0.484,0.132   c-0.419,0.119-0.924,0.362-1.455,0.62c-0.973,0.469-1.979,0.956-2.959,0.956c-1.203,0-2.062-0.73-2.553-2.169   c-1.188-3.479-4.279-7.066-7.858-11.222c-1.493-1.734-2.036-1.867-2.167-1.867c-0.266,0.127-0.448,1.445-0.547,2.152   c-0.064,0.464-0.132,0.949-0.222,1.421c-0.263,1.375,0.005,1.529,0.592,1.869c0.456,0.263,1.081,0.625,1.513,1.51   c1,2.044,2.085,7.78,1.869,11.068c-0.111,1.683-0.729,2.92-1.584,4.633c-0.906,1.813-2.147,4.299-3.438,8.639   c-0.35,1.172-0.339,1.652-0.31,1.824c1.517-0.262,7.327-6.791,10.775-11.314c1.724-2.26,3.642-2.597,4.632-2.597   c0.743,0,1.465,0.182,1.98,0.499c0.52,0.322,0.749,0.895,0.951,1.397c0.263,0.658,0.377,0.816,0.58,0.816   c0.084,0,0.235-0.02,0.479-0.127c1.085-0.469,2.549-0.761,3.823-0.761c1.457,0,2.392,0.386,2.7,1.117   c0.347,0.818-0.415,1.695-1.298,2.715c-0.38,0.438-1,1.152-1.086,1.469c0.027,0.012,0.068,0.025,0.125,0.039   c0.201,0.049,0.422,0.072,0.673,0.072c0.729,0,1.563-0.199,2.447-0.408c0.953-0.227,1.938-0.461,2.888-0.461   c0.609,0,1.139,0.096,1.619,0.293c0.512,0.211,1.165,0.551,2.119,1.1l0.467,0.271c0.918-0.24,1.848-0.424,2.782-0.543   c0.841-0.146,1.694-0.178,2.539-0.266c0.847-0.055,1.694-0.066,2.54-0.102c0.224-0.027,0.462-0.102,0.686-0.184   c0.225-0.088,0.448-0.186,0.658-0.309c0.219-0.109,0.412-0.258,0.616-0.393c0.197-0.146,0.38-0.313,0.57-0.469   c-0.181,0.168-0.352,0.346-0.539,0.504c-0.195,0.15-0.383,0.314-0.599,0.439c-0.205,0.141-0.427,0.254-0.652,0.361   c-0.231,0.098-0.459,0.191-0.721,0.238h-0.008c-0.842,0.076-1.686,0.131-2.523,0.225c-0.833,0.129-1.674,0.199-2.495,0.385   c-0.884,0.158-1.755,0.369-2.61,0.629l-0.814,0.283c-2.166,0.746-3.719,1.689-5.1,2.658c-0.184,0.133-0.37,0.26-0.553,0.396   c-1.344,1-2.697,2.102-4.293,2.857c-0.083,0.041-0.168,0.07-0.253,0.109c-0.356,0.172-0.727,0.338-1.124,0.49   c-1.114,0.426-2.824,0.988-4.701,1.598l-3.555,1.188c-1.596,0.543-3.199,1.086-4.737,1.715c-0.383,0.16-0.761,0.324-1.118,0.502   c-0.027,0.016-0.055,0.029-0.082,0.045c0.39,0.02,0.797,0.018,1.203,0.008c1.658-0.045,3.343-0.195,5.018-0.357l1.248-0.135   l1.26-0.16c0.838-0.109,1.683-0.201,2.515-0.328c1.654-0.275,3.314-0.512,4.96-0.875c1.656-0.305,3.285-0.736,4.924-1.125   l2.436-0.666c0.81-0.232,1.609-0.494,2.415-0.742c1.603-0.518,3.196-1.066,4.769-1.676c1.57-0.613,3.13-1.26,4.661-1.969   c1.532-0.705,3.044-1.469,4.485-2.338l0.009-0.006c0.242-0.115,0.486-0.199,0.737-0.271c0.123-0.041,0.251-0.064,0.377-0.098   c0.126-0.031,0.252-0.057,0.38-0.074c0.129-0.02,0.256-0.047,0.384-0.057l0.386-0.035c0.257-0.02,0.516-0.004,0.771-0.01   c-0.256,0.023-0.513,0.023-0.767,0.063l-0.379,0.057c-0.126,0.02-0.25,0.055-0.374,0.082c-0.125,0.025-0.248,0.057-0.369,0.098   c-0.121,0.039-0.245,0.07-0.362,0.119c-0.238,0.086-0.475,0.188-0.69,0.301l0.008-0.004c-1.414,0.951-2.893,1.789-4.398,2.574   c-0.205,0.109-0.413,0.211-0.62,0.316c0.519,0.26,1.042,0.518,1.58,0.77c5.795,2.705,18.905,4.229,19.392,4.283   c8.818,0.406,16.452-1.525,16.997-1.666l0.032-0.01c0.605-0.16,1.089-0.334,1.518-0.551c-2.735-0.008-4.485-0.707-4.576-0.744   c-8.671-3.691-10.498-9.891-10.571-10.15l-0.393-1.402l1.259,0.73c13.624,7.898,20.651,4.738,21.282,4.426   c0.003-0.004,0.006-0.008,0.009-0.01C95.452,55.182,97.57,53.168,96.021,49.094z M78.204,47.54   c-0.037,0.073-0.931,1.835-2.782,1.835l0,0c-0.362,0-0.736-0.069-1.11-0.208c-2.536-0.932-1.957-4.913-1.932-5.082l0.111-0.724   l0.683,0.259c3.529,1.341,4.924,3.229,4.98,3.31l0.208,0.288L78.204,47.54z"/></g></svg>